<?xml version="1.0" encoding="utf-8"?>
<!-- Generator: Adobe Illustrator 15.1.0, SVG Export Plug-In . SVG Version: 6.00 Build 0)  -->
<!DOCTYPE svg PUBLIC "-//W3C//DTD SVG 1.1//EN" "http://www.w3.org/Graphics/SVG/1.1/DTD/svg11.dtd">
<svg version="1.1" id="Layer_1" xmlns="http://www.w3.org/2000/svg" xmlns:xlink="http://www.w3.org/1999/xlink" x="0px" y="0px"
	 width="48.334px" height="45.991px" viewBox="0 0 48.334 45.991" enable-background="new 0 0 48.334 45.991" xml:space="preserve">
<path fill="#333333" d="M22.996,0c6.35,0,12.098,2.574,16.26,6.735c1.653,1.654,3.057,3.558,4.146,5.651l4.933-4.102l-3.81,16.25
	l-12.803-9.948l6.063-0.494c-0.727-1.204-1.597-2.313-2.585-3.301c-3.122-3.123-7.438-5.055-12.204-5.055
	c-4.767,0-9.082,1.932-12.205,5.055s-5.055,7.438-5.055,12.204s1.932,9.083,5.055,12.205s7.438,5.055,12.205,5.055
	c0.34,0,0.679-0.011,1.014-0.03v5.744c-0.336,0.015-0.674,0.022-1.014,0.022c-6.35,0-12.099-2.574-16.26-6.735
	C2.574,35.094,0,29.345,0,22.995c0-6.349,2.574-12.098,6.736-16.26C10.897,2.574,16.646,0,22.996,0L22.996,0z"/>
</svg>
