<?xml version="1.0" encoding="utf-8"?>
<!-- Generator: Adobe Illustrator 15.1.0, SVG Export Plug-In . SVG Version: 6.00 Build 0)  -->
<!DOCTYPE svg PUBLIC "-//W3C//DTD SVG 1.1//EN" "http://www.w3.org/Graphics/SVG/1.1/DTD/svg11.dtd">
<svg version="1.1" id="Layer_1" xmlns="http://www.w3.org/2000/svg" xmlns:xlink="http://www.w3.org/1999/xlink" x="0px" y="0px"
	 width="42.862px" height="48.806px" viewBox="0 0 42.862 48.806" enable-background="new 0 0 42.862 48.806" xml:space="preserve">
<path fill-rule="evenodd" clip-rule="evenodd" fill="#333333" d="M15.336,3.896c6.212-2.004,12.416-1.902,17.716,1.229
	c0.238,0.141,0.475,0.287,0.71,0.441L36.143,0c2.075,9.033,4.765,16.561,6.72,20.715c-3.809-3.67-10.241-7.182-18.558-7.361
	l5.023-2.914c-0.641-0.064-1.291-0.109-1.952-0.133c-14.338-0.51-26.43,9.096-21.637,23.959c3.187,9.881,14.482,15.08,25.231,11.615
	c3.78-1.219,6.988-3.348,9.421-6.025c-2.646,3.611-6.377,6.436-10.913,7.898C17.739,51.539,5.058,44.789,1.151,32.68
	C-2.754,20.568,3.597,7.682,15.336,3.896L15.336,3.896z"/>
</svg>
