<?xml version="1.0" encoding="utf-8"?>
<!-- Generator: Adobe Illustrator 19.2.1, SVG Export Plug-In . SVG Version: 6.00 Build 0)  -->
<svg version="1.1" id="Layer_1" xmlns="http://www.w3.org/2000/svg" xmlns:xlink="http://www.w3.org/1999/xlink" x="0px" y="0px"
	 viewBox="0 0 375.4 38.3" style="enable-background:new 0 0 375.4 38.3;" xml:space="preserve">
<style type="text/css">
	.st0{fill:#D3D3D3;}
	.st1{fill:url(#SVGID_1_);}
	.st2{fill:url(#SVGID_2_);}
	.st3{fill:url(#SVGID_3_);}
	.st4{fill:url(#SVGID_4_);}
	.st5{fill:url(#SVGID_5_);}
	.st6{fill:url(#SVGID_6_);}
</style>
<g>
	<path class="st0" d="M246.5,28.2H239l-2.4,6.5h4.4v0.9h-8.5v-0.9h3.3l8.6-23.2h0.5l8.2,23.2h3.2v0.9h-11.2v-0.9h3.8L246.5,28.2z
		 M239.3,27.3h6.8l-3.3-9.4h-0.1L239.3,27.3z"/>
	<path class="st0" d="M280,12.9v23.2h-0.7l-15.5-23.3h-0.1v21.9h4v0.9h-8.4v-0.9h3.5V12.9h-3.7V12h9l11,16.5h0.1V12.9h-3.9V12h8.4
		v0.9H280z"/>
	<path class="st0" d="M299.2,28.2h-7.5l-2.4,6.5h4.4v0.9h-8.5v-0.9h3.3l8.6-23.2h0.5l8.2,23.2h3.2v0.9h-11.2v-0.9h3.8L299.2,28.2z
		 M292.1,27.3h6.8l-3.3-9.4h-0.1L292.1,27.3z"/>
	<path class="st0" d="M326.6,11.8l0.1,6.1h-0.8c-1.2-3.7-3.2-5.5-6.2-5.5c-1.6,0-2.9,0.5-3.8,1.4s-1.4,1.8-1.4,2.8
		c0,0.9,0.4,1.7,1.1,2.3s2.1,1.1,4.1,1.5s3.5,0.8,4.6,1.3s1.9,1.3,2.7,2.5s1.1,2.5,1.1,4c0,2.3-0.8,4.2-2.3,5.8s-3.4,2.3-5.6,2.3
		c-1.8,0-3.6-0.7-5.4-2l-1.7,1.5h-0.6V29h0.8c0.7,2.1,1.7,3.6,2.9,4.7s2.6,1.6,4.1,1.6c1.5,0,2.8-0.5,4-1.5s1.8-2.2,1.8-3.7
		c0-1.2-0.4-2.3-1.3-3.1s-2.2-1.4-4.1-1.8s-3.4-0.7-4.4-1.1s-1.9-1.2-2.6-2.2s-1.1-2.2-1.1-3.5c0-1.8,0.6-3.4,1.9-4.8s3-2.1,5.2-2.1
		c1.8,0,3.5,0.6,5.1,1.7c0.4-0.4,0.8-0.9,1.1-1.4H326.6z"/>
	<path class="st0" d="M336.3,34.7V12.9h-3.8V12h11.9v0.9h-3.9v21.8h3.9v0.9h-11.9v-0.9H336.3z"/>
	<path class="st0" d="M347.7,12h11.3v0.9h-3.7l6.1,16.6h0.1l5.7-16.6h-3.8V12h8.3v0.9H368l-7.9,23.2h-0.5l-8.8-23.2h-3.2V12z"/>
</g>
<g>
	<path class="st0" d="M204.8,1.5h29l0.9,11.6h-1.3c-0.8-3.9-1.8-6.6-3.2-8c-1.3-1.5-3-2.2-5.2-2.2h-2.8v31.5h6.1v1.3h-18.2v-1.3h6.1
		V2.8h-2.8c-2.1,0-3.9,0.7-5.2,2.2c-1.3,1.5-2.4,4.2-3.2,8h-1.3L204.8,1.5z"/>
</g>
<g>
	<g>
		<linearGradient id="SVGID_1_" gradientUnits="userSpaceOnUse" x1="168.515" y1="19.1052" x2="2.1044" y2="19.2213">
			<stop  offset="0" style="stop-color:#C8C8C8"/>
			<stop  offset="1" style="stop-color:#4B4B4B"/>
		</linearGradient>
		<path class="st1" d="M1.5,19.1c0-4.9,1.4-8.9,4.3-12c2.9-3.1,6.4-4.7,10.4-4.7c3.8,0,7.1,1.5,10.1,4.4c3,2.9,4.5,7.1,4.5,12.5
			c0,5.1-1.4,9.1-4.2,12.2S20.4,36,16.3,36c-4.4,0-7.9-1.6-10.7-4.9C2.9,27.9,1.5,23.9,1.5,19.1z M21.7,19.2c0-5-0.1-8.3-0.3-9.9
			c-0.2-1.6-0.7-2.9-1.4-3.9c-0.8-1-2-1.5-3.8-1.5c-1.5,0-2.7,0.4-3.6,1.2C11.7,6,11.1,7.2,10.9,9c-0.2,1.7-0.3,5.1-0.3,10.2
			c0,5,0.1,8.3,0.3,9.9c0.2,1.6,0.7,2.9,1.5,3.9c0.8,1,2.1,1.4,3.8,1.4c1.4,0,2.6-0.4,3.5-1.2c0.9-0.8,1.5-2,1.7-3.8
			C21.6,27.8,21.7,24.3,21.7,19.2z"/>
		<linearGradient id="SVGID_2_" gradientUnits="userSpaceOnUse" x1="168.515" y1="19.1427" x2="2.1044" y2="19.2588">
			<stop  offset="0" style="stop-color:#C8C8C8"/>
			<stop  offset="1" style="stop-color:#4B4B4B"/>
		</linearGradient>
		<path class="st2" d="M46.8,4.4V34h4.2v1.6H34.4V34h4.3V4.4h-4.3V2.9h16.5v1.6H46.8z M53.4,13.9L66.9,34h3.8v1.6H53.5V34h4L47,18.4
			L57.9,7.2c0.9-0.9,1.3-1.6,1.3-2c0-0.5-0.6-0.8-1.9-0.8h-2.2V2.9h12.5v1.6h-1.2c-1.5,0-2.6,0.2-3.4,0.6s-2.1,1.4-3.7,3L53.4,13.9z
			"/>
		<linearGradient id="SVGID_3_" gradientUnits="userSpaceOnUse" x1="168.515" y1="19.1519" x2="2.1044" y2="19.268">
			<stop  offset="0" style="stop-color:#C8C8C8"/>
			<stop  offset="1" style="stop-color:#4B4B4B"/>
		</linearGradient>
		<path class="st3" d="M92.2,3l0.4,8.8h-2c-1-2.9-2.2-4.9-3.5-6.1C85.8,4.6,84.2,4,82.4,4c-1.6,0-2.9,0.5-3.9,1.5
			c-1,1-1.5,2.1-1.5,3.4c0,1.6,0.5,2.7,1.6,3.3c1.1,0.6,2.9,1.2,5.5,1.7c4,0.9,6.7,2.2,8.1,3.9s2.1,3.9,2.1,6.6
			c0,3.1-0.9,5.8-2.7,8.1c-1.8,2.3-4.4,3.4-7.6,3.4c-2.3,0-4.4-0.7-6.3-2.2c-0.9,0.7-1.7,1.4-2.5,2.1h-1.6v-9.5h1.9
			c1.4,5.4,4.2,8.1,8.3,8.1c2.2,0,3.9-0.6,5-1.9c1.2-1.3,1.8-2.7,1.8-4.3c0-0.9-0.3-1.7-0.8-2.4c-0.5-0.7-1.1-1.3-1.8-1.7
			c-0.7-0.4-2.6-1-5.7-1.6c-3.1-0.6-5.4-1.8-6.8-3.6c-1.4-1.7-2.2-3.9-2.2-6.5c0-2.8,0.9-5.2,2.6-7.1c1.8-1.9,4-2.9,6.6-2.9
			c2,0,4,0.7,6,2.1c0.6-0.4,1.3-0.9,2-1.5H92.2z"/>
		<linearGradient id="SVGID_4_" gradientUnits="userSpaceOnUse" x1="168.5149" y1="18.8866" x2="2.1042" y2="19.0027">
			<stop  offset="0" style="stop-color:#C8C8C8"/>
			<stop  offset="1" style="stop-color:#4B4B4B"/>
		</linearGradient>
		<path class="st4" d="M116.7,26.4h-10.3l-1.4,3.4c-0.5,1.3-0.8,2.3-0.8,2.9c0,0.9,0.8,1.3,2.4,1.3h1.8v1.6H97.9V34h1
			c1.3,0,2.1-0.2,2.5-0.6c0.4-0.4,1-1.4,1.6-3l11.5-28.2h1.4l12,31.8h3.4v1.6h-16.1V34h4.4L116.7,26.4z M107.1,24.8h9l-4.3-11.4
			L107.1,24.8z"/>
		<linearGradient id="SVGID_5_" gradientUnits="userSpaceOnUse" x1="168.5152" y1="19.4285" x2="2.1046" y2="19.5446">
			<stop  offset="0" style="stop-color:#C8C8C8"/>
			<stop  offset="1" style="stop-color:#4B4B4B"/>
		</linearGradient>
		<path class="st5" d="M146.1,2.9l13,19.2V8c0-1.5-0.1-2.4-0.4-2.9c-0.3-0.4-1.1-0.7-2.3-0.7h-1.5V2.9h9.9v1.6h-1.1
			c-1.2,0-2,0.2-2.3,0.6c-0.3,0.4-0.5,1.1-0.5,2.2V36H159L139.7,7.2v23.7c0,1.3,0.1,2.2,0.4,2.5c0.3,0.4,1,0.6,2.3,0.6h1.9v1.6
			h-10.4V34h1.3c1.3,0,2.1-0.2,2.4-0.7c0.3-0.4,0.4-1.6,0.4-3.5V7.3c0-1.2-0.1-2-0.4-2.3c-0.2-0.3-0.9-0.5-2.1-0.5h-1.8V2.9H146.1z"
			/>
		<linearGradient id="SVGID_6_" gradientUnits="userSpaceOnUse" x1="168.5149" y1="18.9338" x2="2.1042" y2="19.0499">
			<stop  offset="0" style="stop-color:#C8C8C8"/>
			<stop  offset="1" style="stop-color:#4B4B4B"/>
		</linearGradient>
		<path class="st6" d="M184.2,26.4h-10.3l-1.4,3.4c-0.5,1.3-0.8,2.3-0.8,2.9c0,0.9,0.8,1.3,2.4,1.3h1.8v1.6h-10.5V34h1
			c1.3,0,2.1-0.2,2.5-0.6c0.4-0.4,1-1.4,1.6-3L182,2.2h1.4l12,31.8h3.4v1.6h-16.1V34h4.4L184.2,26.4z M174.6,24.8h9l-4.3-11.4
			L174.6,24.8z"/>
	</g>
</g>
</svg>
