<?xml version="1.0" encoding="utf-8"?>
<!-- Generator: Adobe Illustrator 19.2.1, SVG Export Plug-In . SVG Version: 6.00 Build 0)  -->
<svg version="1.1" id="Layer_1" xmlns="http://www.w3.org/2000/svg" xmlns:xlink="http://www.w3.org/1999/xlink" x="0px" y="0px"
	 viewBox="0 0 960 560" style="enable-background:new 0 0 960 560;" xml:space="preserve">
<g>
	<g>
		<path d="M364.8,281.5c-6.6,0.1-11.2-3.8-13.2-11.6c-1.4-5.6-0.6-11.3,0.6-16.8c2.8-12.8,8.3-24.6,15.3-35.6
			c2.9-4.6,6.8-8.4,10.8-12.2c1-1,2.4-1.7,3.6-1.7c3.1,0,5.5-1.7,7.9-3c7.2-4.1,12.5,0.9,14.8,6.5c2.4,6,1.6,12,0.4,18.1
			c-1.5,7.3-3.5,14.5-6.4,21.5c-2,4.8-4.6,9.3-7.8,13.4c-4.2,5.4-7.8,11.3-13.1,15.8C373.8,278.7,369.8,281.3,364.8,281.5z
			 M354.1,262c-0.4,4.8,0.9,9.2,3.5,13.2c1.5,2.3,3.4,3.7,6.3,3.6c4.7-0.2,8.3-2.7,11.6-5.6c5.3-4.6,8.9-10.6,13-16.2
			c2.7-3.6,4.9-7.6,6.7-11.8c3.2-7.5,4.9-15.3,6.5-23.2c1.1-5.1,1.1-10.1-0.7-15.1c-1.8-4.7-4.7-6.1-9.4-4.3
			c-2.7,1.1-5.2,2.3-7.9,3.5c-6.2,2.8-11.7,6.3-14.9,12.7c-1.7,3.4-3.8,6.7-5.4,10.1C358.5,239.4,354.9,250.3,354.1,262z"/>
		<path d="M435.2,285.3c-2.6-0.8-3.8-3.1-5.1-5.2c-3.9-6.2-7.7-12.5-11.5-18.8c-0.2-0.3-0.3-0.5-0.5-0.8c-0.5-0.8-1-1.8-2.1-1.6
			c-1,0.2-1,1.3-1.2,2.2c-1.2,4.6-2,9.4-4,13.8c-0.5,1.1-0.8,2.6-2.7,1.5c-1.2-0.7-1.4-1.2-0.7-2.4c2.4-3.8,3-8.2,4.2-12.4
			c0.4-1.3,0.2-2.1-1.2-2.5c-0.8-0.3-1.7-0.8-1.6-1.9c0.1-1,1-1.5,1.9-1.6c2.5-0.3,3.2-2,3.7-4.2c3.7-14.2,7.4-28.4,12-42.3
			c0.6-1.9,1.4-3.7,2-5.6c0.4-1.2,1.2-1.5,2.2-1c0.9,0.5,1.8,1.3,1.1,2.5c-3.8,6.7-5.5,14.2-7.6,21.6c-2.4,8.4-4.6,16.9-6.9,25.4
			c-0.2,0.7-0.7,1.6,0,2.2c0.6,0.5,1.4-0.1,2-0.4c4.6-2.9,9.6-5.4,13-9.9c1-1.3,2.1-1,3.1-0.1c1,0.9,1,1.8-0.2,2.8
			c-4.6,3.6-9,7.4-14.4,9.8c-1.4,0.7-1.4,1-0.5,2.4c4.9,8,10.2,15.8,14.6,24.2C435.2,283.5,435.6,284.3,435.2,285.3z"/>
		<path d="M484.3,292.6c-5.2,0.4-9.6,0.8-14.1,1.1c-11.6,0.8-23.2,1.6-34.8,2.8c-6,0.6-12.1,1-18.1,1.6c-5,0.5-10,1-15,1.5
			c-2.1,0.2-2.9,1.7-3.4,3.5c-1.1,3.8-2.4,7.6-3.4,11.5c-1.7,6.4-4.4,12.5-6.2,18.8c-1.8,6.2-3.5,12.4-5.3,18.6
			c-0.6,1.9-1.2,3.8-1.9,6c-0.5-1.9,0.2-3.3,0.5-4.7c1.1-4.6,2.1-9.3,3.3-13.8c0.3-1.2-0.3-2.3,0.1-3.5c0.9-2.5,2.3-4.8,2.8-7.4
			c0.3-1.4,0.1-2.8,0.6-4.2c2.3-7.2,4.2-14.5,6.2-21.8c0.4-1.3,0.2-2.1-1.6-1.9c-11.5,1.6-22.9,3.1-34.4,4.5
			c-7.6,0.9-15.2,2.1-22.8,2.6c-2.1,0.1-4.3,0.5-6.4,1c-1.1,0.2-2.3,0.3-2.6-0.9c-0.4-1.4,1-1.4,1.9-1.5c4.8-0.4,9.5-0.8,14.3-1.2
			c8.6-0.7,17.1-1.9,25.7-3c7.5-0.9,15-1.6,22.5-2.8c6-1,12-1.5,18-2c5.1-0.5,10.3-1.1,15.5-1.2c4.8-0.1,9.6-1.1,14.4-1.5
			c3.8-0.3,7.6-0.2,11.3-0.6c4.1-0.4,8.2-1,12.4-0.9c1.9,0,3.7-0.1,5.6-0.7c1.8-0.5,3.9-0.3,5.9,0c1.3,0.2,2.6,0.2,3.7-0.3
			C480.6,291.2,482.1,291.7,484.3,292.6z"/>
		<path d="M589.4,264.1c-2,0.3-4,0.7-6,0.8c-3.7,0.3-7.5,0.4-11.2,0.5c-1.9,0-2.8,0.6-3,2.7c-0.2,3.4-0.8,6.8-1.3,10.2
			c-0.1,0.9-0.3,1.8-1.3,2c-1,0.3-1.8-0.2-2.3-0.9c-0.6-0.8-0.7-1.7-0.1-2.7c1.9-3,1.3-6.5,2-9.7c0.2-0.9-0.6-1.2-1.4-1.2
			c-3.6,0.1-7.2,0.6-10.7,1.1c-1,0.2-1.5,1-1.9,2c-1.1,2.8-2.3,5.6-2.5,8.7c-0.1,1-0.4,2.1-1.4,2.6c-0.8,0.4-1.5-0.2-2.1-0.8
			c-0.8-0.7-0.6-1.5-0.3-2.4c0.8-2.2,1.5-4.5,2.4-6.8c0.5-1.4,0.5-1.8-1.1-1.4c-1.6,0.4-2.8-0.6-3.1-1.9c-0.3-1.7,1.4-1.6,2.6-1.7
			c3.1-0.1,5-1.4,6.5-4.3c2.9-5.7,6.7-10.8,10.2-16.2c0.5-0.8,1.3-1,2.1-0.7c1.2,0.4,2.4,0.9,2.8,2.4c0.5,2,0.9,4.1,0.8,6.2
			c-0.1,2.7,0.6,5.4,0.8,8.1c0.1,1.7,1,2.1,2.5,2.1c4.1,0,8.2,0,12.2,0C585.9,262.9,587.6,263,589.4,264.1z M566.2,260.1
			c-0.2-3.1-0.4-5.9-0.6-8.6c-0.1-0.7-0.2-1.5-0.9-1.8c-0.6-0.3-1.1,0.1-1.4,0.6c-2.6,4-5.1,8-7.6,12.1c-0.5,0.8-0.2,1.4,0.9,1.3
			c2.3-0.2,4.6-0.3,6.9-0.4C565.7,263.2,567.1,262.4,566.2,260.1z"/>
		<path d="M550.4,232.7c0,0.1-0.1,0.3-0.2,0.5c-3.7,5.3-4.6,11.7-6.8,17.5c-3.4,9.1-6.9,18.2-10.9,27c-0.8,1.9-2.3,2-3.6,0.1
			c-1.3-1.7-2.3-3.7-2.9-5.8c-1.7-5.3-3.9-10.5-4.6-16.1c-0.1-0.6-0.2-1.3-0.8-1.3c-0.7-0.1-0.7,0.7-0.9,1.2
			c-2,7.6-4.2,15.2-5.8,22.9c-0.2,1.2-0.5,2-2,1.6c-1.3-0.4-1.9-1.1-1.4-2.5c3-9.7,3.7-20,7.1-29.7c0.3-0.9,0.4-2,1.6-2.1
			c1.4-0.1,2.6,0.7,3,1.9c0.7,2,1.3,4.1,1.7,6.2c1.2,6.1,2.7,12.1,5.1,17.9c0.2,0.6,0.3,1.4,1.1,1.5c0.8,0.1,1-0.8,1.2-1.3
			c2.5-4.7,4.5-9.5,6.6-14.4c3.2-7.6,5.9-15.3,8.4-23.1c0.4-1.2,1.2-2.1,1.9-3c0.5-0.6,1.1-0.6,1.8-0.3
			C550.4,231.9,550.5,232.2,550.4,232.7z"/>
		<path d="M495.8,247.6c0.2,4.8,1.1,9.5,1,14.3c0,0.4,0.2,1,0.4,1.1c3,1,1.4,1.9,0,2.9c-0.5,0.4-0.4,1.2-0.4,1.8
			c-0.1,3.4-0.7,6.7-0.5,10c0.1,1.2-0.2,2.5-1.7,2.3c-1.3-0.1-2.1-1-1.9-2.5c0.4-3,0.6-6,0.9-9.1c0.2-1.6,0.1-2.6-2.1-2.2
			c-2.8,0.6-5.7,0.9-8.5,1.2c-1.8,0.2-2.9,1-3.4,2.8c-0.8,2.7-1.7,5.5-2.7,8.2c-0.4,1.1-0.9,2.5-2.5,1.8c-1.4-0.6-1.1-1.8-0.5-3
			c0.8-1.6,1.3-3.4,1.9-5.2c0.5-1.5,1.2-2.9-0.8-4.1c-1.1-0.7-0.2-1.7,0.7-1.8c2.3-0.2,2.8-1.9,3.6-3.6c3.1-6.3,6.6-12.4,11.4-17.7
			c1-1.1,1.8-2.4,3.5-1.7c1.8,0.7,1.6,2.2,1.5,3.6C495.8,247.1,495.8,247.3,495.8,247.6z M492.4,248.7c-5,4.3-7.5,9.6-10.1,14.8
			c-0.4,0.9,0.1,1.4,1,1.3c3-0.4,6-0.8,9-1.2c1.1-0.2,1.4-0.8,1.4-1.8C493.6,257.6,493.4,253.4,492.4,248.7z"/>
		<path d="M464.6,243.7c2.3-0.3,4.3,0,6.1,1.4c2.8,2.1,2.4,5.9-0.6,7.5c-0.9,0.5-1.6,0.6-2.3-0.2c-0.8-0.9,0.1-1.3,0.5-1.8
			c0.9-1,1.5-2.2,0.9-3.5c-0.6-1.3-2-0.7-3-0.8c-3.2-0.2-6.1,0.8-8.7,2.8c-1.9,1.4-2,2.6-0.2,4c2.1,1.7,4.4,3.1,6.6,4.8
			c5.3,4,5.5,9.7,0.5,14.2c-1.8,1.6-3.5,3.2-5.8,4.2c-5.1,2.3-10.5,0.9-13.6-3.8c-1.6-2.4-2.4-5-2.8-7.8c-0.3-2.1,1.4-2.5,2.8-2.9
			c1.6-0.4,3.1,0,4.1,1.3c0.5,0.6-0.1,0.9-0.7,1.1c-3.4,1-3.3,1-2.4,4.3c1.4,5.2,6.4,8.7,12.2,4.4c1.4-1,2.9-2,4.1-3.3
			c3.2-3.5,2.9-7.7-0.8-10.6c-2.3-1.8-4.8-3.4-7.1-5.3c-2.8-2.4-2.5-5,0.7-6.9C458,244.9,461.1,243.2,464.6,243.7z"/>
		<path d="M485.3,292c3.1-0.3,6.3-0.6,9.5-0.5c3.3,0.1,6.8,0.6,9.8-0.4c3.4-1.2,6.5,1,9.7-0.6c0,0.2,0,0.5,0,0.7
			c-9.6,0.5-19.3,1-28.9,1.4C485.4,292.4,485.4,292.2,485.3,292z"/>
		<path d="M412.2,341.3c-1.7,0-2.7-1.2-2.8-3c-0.1-1.4,1-2.1,2.1-1.9c1.6,0.3,3.5,0.4,3.6,2.7C415.3,341,413.9,341.2,412.2,341.3z"
			/>
	</g>
</g>
</svg>
