<?xml version="1.0" encoding="utf-8"?>
<!-- Generator: Adobe Illustrator 19.2.1, SVG Export Plug-In . SVG Version: 6.00 Build 0)  -->
<svg version="1.1" id="Layer_1" xmlns="http://www.w3.org/2000/svg" xmlns:xlink="http://www.w3.org/1999/xlink" x="0px" y="0px"
	 viewBox="0 0 95 59.7" style="enable-background:new 0 0 95 59.7;" xml:space="preserve">
<g>
	<g>
		<path fill="#786e77" d="M13.9,31.5c-2.4,0-4-1.4-4.7-4.2c-0.5-2-0.2-4,0.2-6c1-4.6,3-8.8,5.5-12.7c1-1.7,2.4-3,3.8-4.4c0.4-0.4,0.8-0.6,1.3-0.6
			c1.1,0,2-0.6,2.8-1.1c2.6-1.5,4.5,0.3,5.3,2.3c0.9,2.1,0.6,4.3,0.1,6.5c-0.5,2.6-1.3,5.2-2.3,7.7c-0.7,1.7-1.6,3.3-2.8,4.8
			c-1.5,1.9-2.8,4-4.7,5.6C17.1,30.5,15.7,31.5,13.9,31.5z M10,24.6c-0.1,1.7,0.3,3.3,1.2,4.7c0.5,0.8,1.2,1.3,2.3,1.3
			c1.7-0.1,3-1,4.1-2c1.9-1.6,3.2-3.8,4.7-5.8c1-1.3,1.8-2.7,2.4-4.2c1.1-2.7,1.7-5.5,2.3-8.3c0.4-1.8,0.4-3.6-0.3-5.4
			c-0.6-1.7-1.7-2.2-3.3-1.5c-1,0.4-1.9,0.8-2.8,1.2c-2.2,1-4.2,2.3-5.3,4.5c-0.6,1.2-1.3,2.4-1.9,3.6C11.6,16.5,10.3,20.4,10,24.6z
			"/>
		<path fill="#786e77" d="M39,32.9c-0.9-0.3-1.4-1.1-1.8-1.8c-1.4-2.2-2.7-4.5-4.1-6.7c-0.1-0.1-0.1-0.2-0.2-0.3c-0.2-0.3-0.4-0.7-0.8-0.6
			c-0.4,0.1-0.4,0.5-0.4,0.8c-0.4,1.7-0.7,3.3-1.4,4.9c-0.2,0.4-0.3,0.9-1,0.5c-0.4-0.2-0.5-0.4-0.3-0.8c0.9-1.4,1.1-2.9,1.5-4.4
			c0.1-0.5,0.1-0.7-0.4-0.9c-0.3-0.1-0.6-0.3-0.6-0.7c0-0.4,0.4-0.5,0.7-0.6c0.9-0.1,1.1-0.7,1.3-1.5c1.3-5.1,2.6-10.1,4.3-15.1
			c0.2-0.7,0.5-1.3,0.7-2c0.1-0.4,0.4-0.5,0.8-0.4c0.3,0.2,0.6,0.5,0.4,0.9c-1.4,2.4-2,5.1-2.7,7.7c-0.8,3-1.6,6-2.5,9.1
			c-0.1,0.3-0.3,0.6,0,0.8c0.2,0.2,0.5,0,0.7-0.2c1.6-1.1,3.4-1.9,4.7-3.5c0.3-0.5,0.7-0.4,1.1,0c0.4,0.3,0.4,0.6-0.1,1
			c-1.6,1.3-3.2,2.6-5.1,3.5c-0.5,0.2-0.5,0.4-0.2,0.8c1.8,2.9,3.6,5.7,5.2,8.6C39,32.2,39.1,32.5,39,32.9z"/>
		<path fill="#786e77" d="M56.5,35.5c-1.8,0.1-3.4,0.3-5,0.4c-4.2,0.3-8.3,0.6-12.4,1c-2.2,0.2-4.3,0.4-6.5,0.6c-1.8,0.2-3.6,0.4-5.4,0.5
			c-0.8,0.1-1,0.6-1.2,1.3c-0.4,1.4-0.8,2.7-1.2,4.1c-0.6,2.3-1.6,4.4-2.2,6.7c-0.6,2.2-1.3,4.4-1.9,6.7c-0.2,0.7-0.4,1.4-0.7,2.1
			c-0.2-0.7,0.1-1.2,0.2-1.7c0.4-1.7,0.7-3.3,1.2-4.9c0.1-0.4-0.1-0.8,0.1-1.3c0.3-0.9,0.8-1.7,1-2.6c0.1-0.5,0.1-1,0.2-1.5
			c0.8-2.6,1.5-5.2,2.2-7.8c0.1-0.5,0.1-0.8-0.6-0.7c-4.1,0.6-8.2,1.1-12.3,1.6c-2.7,0.3-5.4,0.7-8.2,0.9c-0.8,0-1.5,0.2-2.3,0.3
			c-0.4,0.1-0.8,0.1-0.9-0.3c-0.1-0.5,0.3-0.5,0.7-0.5C3,40.3,4.7,40.1,6.4,40c3.1-0.2,6.1-0.7,9.2-1.1c2.7-0.3,5.4-0.6,8-1
			c2.1-0.4,4.3-0.5,6.4-0.7c1.8-0.2,3.7-0.4,5.5-0.4c1.7,0,3.4-0.4,5.1-0.5c1.3-0.1,2.7-0.1,4.1-0.2c1.5-0.1,2.9-0.3,4.4-0.3
			c0.7,0,1.3,0,2-0.2c0.7-0.2,1.4-0.1,2.1,0c0.5,0.1,0.9,0.1,1.3-0.1C55.2,35,55.8,35.2,56.5,35.5z"/>
		<path fill="#786e77" d="M94.1,25.3c-0.7,0.1-1.4,0.2-2.1,0.3c-1.3,0.1-2.7,0.2-4,0.2c-0.7,0-1,0.2-1.1,1c-0.1,1.2-0.3,2.4-0.5,3.6
			c0,0.3-0.1,0.6-0.5,0.7c-0.4,0.1-0.6-0.1-0.8-0.3c-0.2-0.3-0.3-0.6,0-0.9c0.7-1.1,0.5-2.3,0.7-3.5c0.1-0.3-0.2-0.4-0.5-0.4
			c-1.3,0-2.6,0.2-3.8,0.4c-0.4,0.1-0.6,0.4-0.7,0.7c-0.4,1-0.8,2-0.9,3.1c0,0.3-0.1,0.8-0.5,0.9c-0.3,0.1-0.5-0.1-0.8-0.3
			c-0.3-0.3-0.2-0.5-0.1-0.9c0.3-0.8,0.5-1.6,0.8-2.4c0.2-0.5,0.2-0.6-0.4-0.5c-0.6,0.1-1-0.2-1.1-0.7c-0.1-0.6,0.5-0.6,0.9-0.6
			c1.1,0,1.8-0.5,2.3-1.5c1-2,2.4-3.9,3.6-5.8c0.2-0.3,0.5-0.3,0.8-0.3c0.4,0.1,0.9,0.3,1,0.8c0.2,0.7,0.3,1.5,0.3,2.2
			c0,1,0.2,1.9,0.3,2.9c0,0.6,0.3,0.7,0.9,0.7c1.5,0,2.9,0,4.4,0C92.9,24.9,93.5,24.9,94.1,25.3z M85.8,23.9
			c-0.1-1.1-0.1-2.1-0.2-3.1c0-0.2-0.1-0.5-0.3-0.6c-0.2-0.1-0.4,0-0.5,0.2c-0.9,1.4-1.8,2.9-2.7,4.3c-0.2,0.3-0.1,0.5,0.3,0.5
			c0.8-0.1,1.6-0.1,2.5-0.1C85.6,25,86.1,24.7,85.8,23.9z"/>
		<path fill="#786e77" d="M80.2,14.1c0,0,0,0.1-0.1,0.2c-1.3,1.9-1.6,4.2-2.4,6.3c-1.2,3.3-2.5,6.5-3.9,9.7c-0.3,0.7-0.8,0.7-1.3,0.1
			c-0.5-0.6-0.8-1.3-1-2.1c-0.6-1.9-1.4-3.7-1.6-5.7c0-0.2-0.1-0.4-0.3-0.5c-0.3,0-0.3,0.2-0.3,0.4c-0.7,2.7-1.5,5.4-2.1,8.2
			c-0.1,0.4-0.2,0.7-0.7,0.6c-0.5-0.1-0.7-0.4-0.5-0.9c1.1-3.5,1.3-7.2,2.5-10.6c0.1-0.3,0.2-0.7,0.6-0.8c0.5,0,0.9,0.3,1.1,0.7
			c0.3,0.7,0.5,1.5,0.6,2.2c0.4,2.2,1,4.3,1.8,6.4c0.1,0.2,0.1,0.5,0.4,0.5c0.3,0,0.3-0.3,0.4-0.5c0.9-1.7,1.6-3.4,2.4-5.1
			c1.1-2.7,2.1-5.5,3-8.2c0.1-0.4,0.4-0.7,0.7-1.1c0.2-0.2,0.4-0.2,0.6-0.1C80.2,13.8,80.2,13.9,80.2,14.1z"/>
		<path fill="#786e77" d="M60.7,19.4c0.1,1.7,0.4,3.4,0.4,5.1c0,0.1,0.1,0.4,0.1,0.4c1.1,0.4,0.5,0.7,0,1c-0.2,0.1-0.1,0.4-0.1,0.6
			c0,1.2-0.3,2.4-0.2,3.6c0,0.4-0.1,0.9-0.6,0.8c-0.5,0-0.7-0.3-0.7-0.9c0.1-1.1,0.2-2.2,0.3-3.2c0.1-0.6,0-0.9-0.7-0.8
			c-1,0.2-2,0.3-3,0.4c-0.6,0.1-1,0.3-1.2,1c-0.3,1-0.6,2-0.9,2.9c-0.1,0.4-0.3,0.9-0.9,0.6c-0.5-0.2-0.4-0.6-0.2-1.1
			c0.3-0.6,0.5-1.2,0.7-1.8c0.2-0.5,0.4-1-0.3-1.5c-0.4-0.3-0.1-0.6,0.3-0.6c0.8-0.1,1-0.7,1.3-1.3c1.1-2.3,2.4-4.4,4.1-6.3
			c0.3-0.4,0.6-0.8,1.3-0.6c0.6,0.2,0.6,0.8,0.5,1.3C60.6,19.2,60.7,19.3,60.7,19.4z M59.5,19.8c-1.8,1.5-2.7,3.4-3.6,5.3
			c-0.2,0.3,0,0.5,0.4,0.5c1.1-0.1,2.1-0.3,3.2-0.4c0.4-0.1,0.5-0.3,0.5-0.7C59.9,23,59.8,21.5,59.5,19.8z"/>
		<path fill="#786e77" d="M49.5,18c0.8-0.1,1.5,0,2.2,0.5c1,0.8,0.9,2.1-0.2,2.7c-0.3,0.2-0.6,0.2-0.8-0.1c-0.3-0.3,0-0.5,0.2-0.6
			c0.3-0.4,0.5-0.8,0.3-1.2c-0.2-0.5-0.7-0.3-1.1-0.3c-1.2-0.1-2.2,0.3-3.1,1c-0.7,0.5-0.7,0.9-0.1,1.4c0.8,0.6,1.6,1.1,2.4,1.7
			c1.9,1.4,2,3.5,0.2,5.1c-0.6,0.6-1.3,1.1-2.1,1.5c-1.8,0.8-3.7,0.3-4.9-1.4c-0.6-0.8-0.9-1.8-1-2.8c-0.1-0.7,0.5-0.9,1-1
			c0.6-0.2,1.1,0,1.5,0.5c0.2,0.2,0,0.3-0.3,0.4c-1.2,0.4-1.2,0.4-0.9,1.6c0.5,1.8,2.3,3.1,4.4,1.6c0.5-0.4,1-0.7,1.5-1.2
			c1.2-1.3,1.1-2.7-0.3-3.8c-0.8-0.6-1.7-1.2-2.5-1.9c-1-0.9-0.9-1.8,0.2-2.5C47.1,18.5,48.2,17.9,49.5,18z"/>
		<path fill="#786e77" d="M56.9,35.3c1.1-0.1,2.2-0.2,3.4-0.2c1.2,0,2.4,0.2,3.5-0.2c1.2-0.4,2.3,0.4,3.4-0.2c0,0.1,0,0.2,0,0.3
			c-3.4,0.2-6.9,0.3-10.3,0.5C56.9,35.4,56.9,35.4,56.9,35.3z"/>
		<path fill="#786e77" d="M30.8,52.9c-0.6,0-1-0.4-1-1.1c0-0.5,0.3-0.8,0.8-0.7c0.6,0.1,1.2,0.1,1.3,1C31.9,52.8,31.4,52.9,30.8,52.9z"/>
	</g>
</g>
</svg>
